<?xml version="1.0" standalone="no"?>
<!DOCTYPE svg PUBLIC "-//W3C//DTD SVG 20010904//EN"
 "http://www.w3.org/TR/2001/REC-SVG-20010904/DTD/svg10.dtd">
<svg version="1.0" xmlns="http://www.w3.org/2000/svg"
 width="512.000000pt" height="512.000000pt" viewBox="0 0 512.000000 512.000000"
 preserveAspectRatio="xMidYMid meet">
<metadata>
Created by potrace 1.14, written by Peter Selinger 2001-2017
</metadata>
<g transform="translate(0.000000,512.000000) scale(0.100000,-0.100000)"
fill="#000000" stroke="none">
<path d="M4390 4779 c-85 -9 -168 -20 -194 -25 -12 -2 -41 -7 -66 -10 -25 -3
-61 -9 -80 -14 -19 -5 -51 -12 -70 -15 -19 -3 -87 -19 -150 -35 -290 -74 -555
-182 -807 -328 l-63 -36 0 -164 c0 -135 -3 -169 -17 -192 -28 -48 -109 -45
-132 6 -6 14 -11 72 -11 130 l0 105 -29 -17 c-49 -29 -199 -159 -310 -267
-395 -388 -668 -868 -765 -1344 -27 -134 -38 -159 -75 -166 -39 -8 -82 19
-121 74 -50 73 -111 149 -118 149 -3 0 -3 -3 1 -6 3 -3 2 -16 -3 -29 -5 -13
-12 -42 -15 -66 -4 -24 -8 -46 -10 -49 -20 -32 -24 -348 -6 -455 17 -103 42
-205 51 -205 4 0 18 13 31 29 13 15 61 68 106 117 45 49 123 141 175 204 51
63 101 124 110 135 9 11 47 56 84 100 99 119 316 367 363 416 9 9 48 52 88 95
270 297 681 704 988 976 369 327 886 718 1160 875 l40 23 -45 -2 c-25 -1 -74
-5 -110 -9z"/>
<path d="M4655 4669 c-117 -68 -404 -255 -475 -309 -19 -15 -71 -53 -115 -86
-44 -32 -87 -64 -95 -71 -8 -7 -76 -61 -150 -120 -132 -105 -299 -245 -389
-328 -235 -213 -325 -299 -546 -521 -196 -196 -301 -306 -440 -458 -107 -117
-110 -121 -185 -206 -36 -40 -70 -78 -75 -84 -6 -6 -52 -60 -104 -121 -51 -60
-103 -121 -115 -135 -11 -14 -39 -47 -61 -75 -22 -27 -42 -52 -45 -55 -23 -21
-105 -135 -107 -148 -1 -9 -5 -37 -8 -62 -3 -25 -10 -72 -15 -105 -5 -33 -11
-76 -14 -95 -2 -19 -8 -56 -11 -82 -4 -27 -5 -48 -2 -48 18 0 241 84 417 157
260 109 574 280 740 403 166 124 230 173 243 188 15 16 1 17 -226 16 -276 -1
-302 4 -313 61 -7 38 7 70 39 86 15 9 120 12 360 13 l339 1 92 95 c96 100 226
248 226 260 0 3 -86 34 -190 69 -105 35 -197 70 -205 78 -24 23 -30 64 -14 91
18 32 24 35 141 71 96 30 262 90 328 118 19 9 51 22 70 31 136 59 330 165 440
240 75 52 180 135 180 142 0 3 -48 4 -107 4 -132 -2 -169 11 -179 62 -8 42 13
78 53 91 15 5 108 8 206 8 l179 -1 32 50 c114 179 202 477 232 784 4 34 3 62
-2 62 -5 -1 -63 -32 -129 -71z"/>
<path d="M1519 1711 c-19 -21 -79 -87 -134 -146 -55 -59 -111 -119 -124 -134
-13 -14 -49 -53 -80 -86 -31 -34 -101 -110 -156 -169 -55 -60 -124 -134 -152
-165 -29 -31 -53 -59 -53 -64 0 -13 70 -147 77 -147 4 0 17 11 28 24 11 13 63
70 115 126 52 57 100 108 105 114 22 25 223 244 266 291 122 131 114 117 128
223 7 53 15 114 18 135 2 20 3 37 0 37 -2 0 -20 -17 -38 -39z"/>
<path d="M644 758 c-77 -97 -219 -302 -231 -334 -3 -8 19 2 48 22 53 36 188
104 206 104 13 0 108 113 105 125 -8 26 -68 145 -73 145 -3 0 -28 -28 -55 -62z"/>
</g>
</svg>
